<svg xmlns="http://www.w3.org/2000/svg" width="239" height="59" viewBox="0 0 239 59"><g><g><g><g><g><path fill="#becbd3" d="M51.93 17.669L33.629 30.106l-4.754-3.218V1.985z"/></g><g><path fill="#e63524" d="M51.93 42.414L33.629 29.977l-4.754 3.218v24.903z"/></g><g><path fill="#b02019" d="M51.93 17.604L33.629 30.042l18.303 12.437z"/></g><g><path fill="#becbd3" d="M0 17.669l18.302 12.437 4.755-3.218V1.985z"/></g><g><path fill="#e63524" d="M0 42.414l18.302-12.437 4.755 3.218v24.903z"/></g><g><path fill="#b02019" d="M0 17.604l18.302 12.438L0 42.479z"/></g></g></g><g><g><path fill="#171717" d="M231.601 0c.012.11.032.219.032.328.002 1.357 0 2.715 0 4.073 0 .094 0 .19-.004.283-.01.091-.066.137-.16.139l-.378.003h-16.797c-.125 0-.252.003-.377-.002-.183-.006-.204-.03-.213-.23-.002-.047 0-.094 0-.142 0-1.484 0-2.968.002-4.452z"/></g><g><path fill="#171717" d="M123.01 21.701v.51c0 11.593 0 23.186-.002 34.78 0 .201.085.453-.049.593-.15.161-.417.063-.631.064-1.198.007-2.398.003-3.598.003-.125 0-.252.003-.377-.006-.087-.006-.145-.057-.147-.152-.003-.11-.005-.221-.005-.332V13.094c0-.535-.038-.487.48-.488h3.646c.095 0 .19.002.283 0a.246.246 0 0 1 .235.126c.082.135.174.263.26.395 7.724 11.637 15.446 23.274 23.168 34.911.095.143.194.282.284.414.114-.024.096-.094.098-.152v-.427c0-11.546 0-23.092.002-34.638 0-.198-.09-.443.067-.585.135-.122.363-.041.548-.042 1.232-.004 2.463-.002 3.692-.002.126 0 .254-.001.379.01.038.004.088.033.092.093.003.047.012.094.014.14.002.127.002.253.002.38v43.783c0 .143 0 .285-.004.427-.006.19-.022.21-.23.21-1.357.002-2.713.002-4.071.002-.03 0-.064-.002-.094-.001a.258.258 0 0 1-.238-.125c-.077-.119-.158-.236-.236-.355l-23.19-35.068c-.093-.143-.192-.285-.288-.428l-.09.027"/></g><g><path fill="#171717" d="M197.813 12.643L183.691 30c.092.162.176.313.262.461L199.536 57.1c.08.136.16.271.233.411.034.067-.003.124-.076.131-.095.01-.19.009-.283.009h-4.828c-.096 0-.19 0-.286-.004a.217.217 0 0 1-.193-.113c-.068-.125-.14-.246-.21-.37l-13.136-22.967c-.085-.149-.176-.294-.255-.427-.13-.035-.154.06-.206.11-.046.042-.083.095-.123.143-1.917 2.306-3.836 4.611-5.755 6.916-1.051 1.262-2.096 2.528-3.156 3.782a1.1 1.1 0 0 0-.279.766c.01 3.838.007 7.676.005 11.514 0 .11.003.222 0 .332-.005.306-.01.316-.32.317-1.388.002-2.777 0-4.165 0l-.142-.001c-.108-.003-.181-.044-.181-.165l-.001-.142c-.002-.11 0-.221 0-.332 0-14.594-.002-29.188 0-43.782 0-.727-.107-.617.625-.62 1.23-.006 2.461-.002 3.693-.002.093 0 .188-.002.283.002.166.006.201.037.207.188.005.142 0 .284 0 .426V38.374c.167-.07.227-.18.3-.27 1.772-2.181 3.541-4.364 5.31-6.547l15.122-18.65c.03-.036.064-.07.088-.11.09-.154.226-.194.398-.194 1.799.005 3.597.003 5.396.004.043 0 .087.014.212.036"/></g><g><path fill="#171717" d="M238.323 29.19c.005-.718-.05-1.789-.08-2.086a24.264 24.264 0 0 0-.484-3.656c-.474-2.223-1.442-4.195-2.97-5.886a16.321 16.321 0 0 0-2.367-2.173c-2.412-1.796-5.12-2.804-8.11-3.085a17.14 17.14 0 0 0-4.945.233c-3.418.673-6.309 2.306-8.675 4.866-1.104 1.195-1.963 2.542-2.537 4.07-.372.994-.619 2.02-.784 3.066-.24 1.53-.342 3.074-.38 4.621-.069 2.794-.08 5.589-.053 8.384.018 2.178.014 4.357.229 6.53.102 1.037.247 2.067.49 3.081.421 1.757 1.14 3.378 2.269 4.794 2.593 3.244 5.934 5.217 10.042 5.875.404.065 1.424.24 2.165.272.379 0 1.292.018 2.113-.049.993-.053 1.97-.21 2.929-.475 2.457-.679 4.62-1.882 6.515-3.595 1.743-1.575 3.044-3.427 3.783-5.67.59-1.785.805-4.13.85-7.175zm-4.735 8.686a66.381 66.381 0 0 1-.2 5.112 20.333 20.333 0 0 1-.485 3.131c-.498 2.07-1.614 3.753-3.24 5.106a10.557 10.557 0 0 1-5.143 2.343c-3.099.506-5.928-.167-8.446-2.034-2.054-1.52-3.323-3.552-3.786-6.077a26.219 26.219 0 0 1-.394-3.288c-.21-3.757-.193-7.515-.114-11.274a57.25 57.25 0 0 1 .13-3.124c.094-1.197.233-2.386.51-3.558.519-2.211 1.727-3.975 3.495-5.367a10.538 10.538 0 0 1 5.114-2.185c3.051-.435 5.83.257 8.295 2.11 1.439 1.082 2.54 2.448 3.194 4.148.35.917.557 1.873.696 2.844.265 1.848.324 3.71.36 5.574.023 1.263.004 2.527.004 3.79h.01c0 .917.004 1.833 0 2.749"/></g><g><path fill="#171717" d="M97.384 43.3l-15.713-.001c-.555 0-.555 0-.359-.551 2.69-7.56 5.382-15.12 8.074-22.68.047-.134.1-.264.157-.394.005-.01.074-.011.079 0 .05.114.1.23.142.348.559 1.591 1.118 3.183 1.675 4.775l6.319 18.033c.046.133.09.266.158.47zm10.454 13.81c-5.365-14.66-10.733-29.32-16.1-43.979-.05-.133-.105-.264-.154-.397-.03-.084-.086-.125-.175-.125l-.237-.003c-1.104 0-2.208-.002-3.313.001-.36.001-.347-.067-.493.356-.02.06-.043.119-.065.178L76.463 42.623c-1.78 4.84-3.559 9.68-5.336 14.52-.052.146-.141.284-.124.484.074.01.12.023.166.023h4.591c.064 0 .127.001.19-.006a.173.173 0 0 0 .146-.104c.042-.102.08-.205.117-.31.545-1.546 1.089-3.093 1.636-4.64.562-1.59 1.126-3.18 1.69-4.77.139-.39.094-.338.499-.345h.095l18.696.001c.157 0 .317-.024.488.037.058.15.123.31.18.473l3.247 9.188.11.313c.035.097.099.159.207.161l.189.003h4.45c.093 0 .19.018.28-.05.007-.176-.084-.33-.142-.49"/></g></g></g></g></svg>